<svg xmlns="http://www.w3.org/2000/svg" width="27" height="28" viewBox="0 0 27 28" fill="none">
<circle cx="13.4993" cy="14.0003" r="13.0333" fill="#333333" stroke="url(#paint0_linear_26950_80989)" stroke-width="0.6"/>
<path fill-rule="evenodd" clip-rule="evenodd" d="M20.6016 8.66699H6.39856C5.90307 8.66699 5.5 9.07006 5.5 9.56556V19.0863C5.5 19.5818 5.90307 19.9849 6.39856 19.9849H20.6014C21.0969 19.9849 21.5 19.5818 21.5 19.0863V9.56556C21.5002 9.07006 21.0971 8.66699 20.6016 8.66699ZM20.8193 19.0863C20.8193 19.2065 20.7216 19.304 20.6016 19.304H6.39856C6.27856 19.304 6.18086 19.2063 6.18086 19.0863V9.56556C6.18086 9.44538 6.27856 9.34785 6.39856 9.34785H20.6014C20.7216 9.34785 20.8191 9.44555 20.8191 9.56556V19.0863H20.8193ZM12.9788 14.8938H12.6455V12.3122C12.6455 12.174 12.5618 12.0494 12.4338 11.997C12.3059 11.9447 12.1589 11.9752 12.0618 12.0739L9.69994 14.4855C9.63764 14.5492 9.60275 14.6346 9.60275 14.7236V15.2343C9.60275 15.4222 9.75526 15.5747 9.94317 15.5747H11.9645V16.8513C11.9645 17.0392 12.117 17.1917 12.3049 17.1917C12.4928 17.1917 12.6453 17.0392 12.6453 16.8513V15.5747H12.9786C13.1665 15.5747 13.319 15.4222 13.319 15.2343C13.319 15.0464 13.1667 14.8938 12.9788 14.8938ZM11.9645 14.8938H10.2836V14.8625L11.9645 13.1463V14.8938ZM16.8141 12.0735C16.946 11.9397 17.1615 11.9377 17.2956 12.0696C17.4297 12.2014 17.4316 12.4168 17.2998 12.551L15.9391 13.9346L17.3598 16.6955C17.4459 16.8627 17.38 17.068 17.2129 17.1539C17.163 17.1796 17.1097 17.1917 17.0573 17.1917C16.9339 17.1917 16.8146 17.1243 16.7543 17.007L15.4363 14.4458L14.5676 15.3292V16.8513C14.5676 17.0392 14.415 17.1917 14.2271 17.1917C14.0392 17.1917 13.8867 17.0392 13.8867 16.8513V15.1927V15.1925V12.3122C13.8867 12.1242 14.0392 11.9717 14.2271 11.9717C14.415 11.9717 14.5676 12.1242 14.5676 12.3122V14.3581L16.8141 12.0735Z" fill="url(#paint1_linear_26950_80989)"/>
<path d="M21.5 9.56556L21.32 9.56549V9.56556H21.5ZM20.8193 19.0863H20.9993V18.9063H20.8193V19.0863ZM20.8191 19.0863H20.6391V19.2663H20.8191V19.0863ZM12.6455 14.8938H12.4655V15.0738H12.6455V14.8938ZM12.4338 11.997L12.502 11.8304L12.5019 11.8303L12.4338 11.997ZM12.0618 12.0739L11.9335 11.9477L11.9332 11.948L12.0618 12.0739ZM9.69994 14.4855L9.57134 14.3596L9.57129 14.3596L9.69994 14.4855ZM11.9645 15.5747H12.1445V15.3947H11.9645V15.5747ZM12.6453 15.5747V15.3947H12.4653V15.5747H12.6453ZM10.2836 14.8938H10.1036V15.0738H10.2836V14.8938ZM11.9645 14.8938V15.0738H12.1445V14.8938H11.9645ZM10.2836 14.8625L10.155 14.7366L10.1036 14.7891V14.8625H10.2836ZM11.9645 13.1463H12.1445V12.7052L11.8359 13.0203L11.9645 13.1463ZM17.2956 12.0696L17.1694 12.1979L17.1695 12.198L17.2956 12.0696ZM16.8141 12.0735L16.6859 11.9471L16.6857 11.9473L16.8141 12.0735ZM17.2998 12.551L17.4282 12.6772L17.4283 12.6771L17.2998 12.551ZM15.9391 13.9346L15.8108 13.8084L15.7195 13.9013L15.7791 14.017L15.9391 13.9346ZM17.3598 16.6955L17.1997 16.7779L17.1998 16.778L17.3598 16.6955ZM17.2129 17.1539L17.1305 16.9938L17.1304 16.9939L17.2129 17.1539ZM16.7543 17.007L16.9144 16.9248L16.9144 16.9247L16.7543 17.007ZM15.4363 14.4458L15.5964 14.3634L15.4825 14.1421L15.308 14.3196L15.4363 14.4458ZM14.5676 15.3292L14.4392 15.203L14.3876 15.2555V15.3292H14.5676ZM14.5676 14.3581H14.3876V14.7979L14.6959 14.4843L14.5676 14.3581ZM6.39856 8.84699H20.6016V8.48699H6.39856V8.84699ZM5.68 9.56556C5.68 9.16947 6.00248 8.84699 6.39856 8.84699V8.48699C5.80366 8.48699 5.32 8.97065 5.32 9.56556H5.68ZM5.68 19.0863V9.56556H5.32V19.0863H5.68ZM6.39856 19.8049C6.00248 19.8049 5.68 19.4824 5.68 19.0863H5.32C5.32 19.6812 5.80366 20.1649 6.39856 20.1649V19.8049ZM20.6014 19.8049H6.39856V20.1649H20.6014V19.8049ZM21.32 19.0863C21.32 19.4824 20.9975 19.8049 20.6014 19.8049V20.1649C21.1963 20.1649 21.68 19.6812 21.68 19.0863H21.32ZM21.32 9.56556V19.0863H21.68V9.56556H21.32ZM20.6016 8.84699C20.9977 8.84699 21.3201 9.16947 21.32 9.56549L21.68 9.56562C21.6802 8.97065 21.1965 8.48699 20.6016 8.48699V8.84699ZM20.6016 19.484C20.8209 19.484 20.9993 19.306 20.9993 19.0863H20.6393C20.6393 19.107 20.6223 19.124 20.6016 19.124V19.484ZM6.39856 19.484H20.6016V19.124H6.39856V19.484ZM6.00086 19.0863C6.00086 19.3057 6.17915 19.484 6.39856 19.484V19.124C6.37797 19.124 6.36086 19.1069 6.36086 19.0863H6.00086ZM6.00086 9.56556V19.0863H6.36086V9.56556H6.00086ZM6.39856 9.16785C6.17924 9.16785 6.00086 9.34588 6.00086 9.56556H6.36086C6.36086 9.54489 6.37788 9.52785 6.39856 9.52785V9.16785ZM20.6014 9.16785H6.39856V9.52785H20.6014V9.16785ZM20.9991 9.56556C20.9991 9.34623 20.8211 9.16785 20.6014 9.16785V9.52785C20.6221 9.52785 20.6391 9.54487 20.6391 9.56556H20.9991ZM20.9991 19.0863V9.56556H20.6391V19.0863H20.9991ZM20.8193 18.9063H20.8191V19.2663H20.8193V18.9063ZM12.6455 15.0738H12.9788V14.7138H12.6455V15.0738ZM12.4655 12.3122V14.8938H12.8255V12.3122H12.4655ZM12.3655 12.1635C12.4261 12.1883 12.4655 12.2472 12.4655 12.3122H12.8255C12.8255 12.1008 12.6974 11.9105 12.502 11.8304L12.3655 12.1635ZM12.1902 12.2001C12.2362 12.1532 12.3057 12.1391 12.3656 12.1636L12.5019 11.8303C12.3061 11.7503 12.0815 11.7971 11.9335 11.9477L12.1902 12.2001ZM9.82854 14.6114L12.1904 12.1998L11.9332 11.948L9.57134 14.3596L9.82854 14.6114ZM9.78275 14.7236C9.78275 14.6817 9.79916 14.6415 9.82859 14.6114L9.57129 14.3596C9.47612 14.4569 9.42275 14.5875 9.42275 14.7236H9.78275ZM9.78275 15.2343V14.7236H9.42275V15.2343H9.78275ZM9.94317 15.3947C9.85467 15.3947 9.78275 15.3228 9.78275 15.2343H9.42275C9.42275 15.5216 9.65585 15.7547 9.94317 15.7547V15.3947ZM11.9645 15.3947H9.94317V15.7547H11.9645V15.3947ZM12.1445 16.8513V15.5747H11.7845V16.8513H12.1445ZM12.3049 17.0117C12.2164 17.0117 12.1445 16.9398 12.1445 16.8513H11.7845C11.7845 17.1386 12.0176 17.3717 12.3049 17.3717V17.0117ZM12.4653 16.8513C12.4653 16.9398 12.3934 17.0117 12.3049 17.0117V17.3717C12.5922 17.3717 12.8253 17.1386 12.8253 16.8513H12.4653ZM12.4653 15.5747V16.8513H12.8253V15.5747H12.4653ZM12.9786 15.3947H12.6453V15.7547H12.9786V15.3947ZM13.139 15.2343C13.139 15.3228 13.0671 15.3947 12.9786 15.3947V15.7547C13.2659 15.7547 13.499 15.5216 13.499 15.2343H13.139ZM12.9788 15.0738C13.0672 15.0738 13.139 15.1457 13.139 15.2343H13.499C13.499 14.9471 13.2662 14.7138 12.9788 14.7138V15.0738ZM10.2836 15.0738H11.9645V14.7138H10.2836V15.0738ZM10.1036 14.8625V14.8938H10.4636V14.8625H10.1036ZM11.8359 13.0203L10.155 14.7366L10.4122 14.9885L12.0931 13.2722L11.8359 13.0203ZM12.1445 14.8938V13.1463H11.7845V14.8938H12.1445ZM17.4218 11.9413C17.2167 11.7395 16.8873 11.7428 16.6859 11.9471L16.9422 12.1999C17.0046 12.1366 17.1063 12.1359 17.1694 12.1979L17.4218 11.9413ZM17.4283 12.6771C17.6296 12.4721 17.6268 12.1426 17.4217 11.9412L17.1695 12.198C17.2326 12.2601 17.2336 12.3616 17.1714 12.4248L17.4283 12.6771ZM16.0675 14.0609L17.4282 12.6772L17.1715 12.4248L15.8108 13.8084L16.0675 14.0609ZM17.5198 16.6132L16.0992 13.8523L15.7791 14.017L17.1997 16.7779L17.5198 16.6132ZM17.2952 17.314C17.5507 17.1826 17.6515 16.8687 17.5198 16.6131L17.1998 16.778C17.2403 16.8566 17.2093 16.9533 17.1305 16.9938L17.2952 17.314ZM17.0573 17.3717C17.1375 17.3717 17.2192 17.3532 17.2953 17.3139L17.1304 16.9939C17.1068 17.0061 17.0819 17.0117 17.0573 17.0117V17.3717ZM16.5942 17.0893C16.6866 17.269 16.8692 17.3717 17.0573 17.3717V17.0117C16.9985 17.0117 16.9426 16.9796 16.9144 16.9248L16.5942 17.0893ZM15.2763 14.5282L16.5943 17.0894L16.9144 16.9247L15.5964 14.3634L15.2763 14.5282ZM14.6959 15.4554L15.5647 14.572L15.308 14.3196L14.4392 15.203L14.6959 15.4554ZM14.7476 16.8513V15.3292H14.3876V16.8513H14.7476ZM14.2271 17.3717C14.5145 17.3717 14.7476 17.1386 14.7476 16.8513H14.3876C14.3876 16.9398 14.3156 17.0117 14.2271 17.0117V17.3717ZM13.7067 16.8513C13.7067 17.1386 13.9398 17.3717 14.2271 17.3717V17.0117C14.1386 17.0117 14.0667 16.9398 14.0667 16.8513H13.7067ZM13.7067 15.1927V16.8513H14.0667V15.1927H13.7067ZM13.7067 15.1925V15.1927H14.0667V15.1925H13.7067ZM13.7067 12.3122V15.1925H14.0667V12.3122H13.7067ZM14.2271 11.7917C13.9398 11.7917 13.7067 12.0248 13.7067 12.3122H14.0667C14.0667 12.2237 14.1386 12.1517 14.2271 12.1517V11.7917ZM14.7476 12.3122C14.7476 12.0248 14.5145 11.7917 14.2271 11.7917V12.1517C14.3156 12.1517 14.3876 12.2237 14.3876 12.3122H14.7476ZM14.7476 14.3581V12.3122H14.3876V14.3581H14.7476ZM16.6857 11.9473L14.4392 14.2319L14.6959 14.4843L16.9424 12.1997L16.6857 11.9473Z" fill="url(#paint2_linear_26950_80989)"/>
<defs>
<linearGradient id="paint0_linear_26950_80989" x1="0.166016" y1="15.2124" x2="26.8327" y2="15.2124" gradientUnits="userSpaceOnUse">
<stop stop-color="#DA9E1C"/>
<stop offset="1" stop-color="#ECBD57"/>
</linearGradient>
<linearGradient id="paint1_linear_26950_80989" x1="5.5" y1="14.8404" x2="21.5" y2="14.8404" gradientUnits="userSpaceOnUse">
<stop stop-color="#DA9E1C"/>
<stop offset="1" stop-color="#ECBD57"/>
</linearGradient>
<linearGradient id="paint2_linear_26950_80989" x1="5.5" y1="14.8404" x2="21.5" y2="14.8404" gradientUnits="userSpaceOnUse">
<stop stop-color="#DA9E1C"/>
<stop offset="1" stop-color="#ECBD57"/>
</linearGradient>
</defs>
</svg>