<svg xmlns="http://www.w3.org/2000/svg" width="27" height="28" viewBox="0 0 27 28" fill="none">
<circle cx="13.4993" cy="14.0003" r="12.8333" fill="#333333" stroke="url(#paint0_linear_26950_80827)"/>
<path d="M17.9235 9.76818C17.8723 9.717 17.8071 9.68214 17.7361 9.66803C17.6651 9.65391 17.5915 9.66116 17.5246 9.68886C17.4577 9.71656 17.4005 9.76347 17.3603 9.82366C17.3201 9.88385 17.2986 9.95461 17.2986 10.027C17.2986 11.5686 16.5432 12.6282 15.9694 13.0787C16.4709 10.1264 15.6247 6.76441 13.3875 6.01863C13.3324 6.00038 13.2738 5.99544 13.2165 6.00424C13.1592 6.01304 13.1047 6.03531 13.0577 6.06924C13.0107 6.10316 12.9723 6.14776 12.9459 6.19937C12.9194 6.25099 12.9056 6.30814 12.9055 6.36614C12.9055 8.64701 11.4791 9.89113 9.96899 11.2082C8.74561 12.275 7.4804 13.379 7.05925 15.0635C6.37319 17.8078 7.25053 19.8655 9.74165 21.3542C9.80795 21.394 9.88516 21.4118 9.96219 21.4049C10.0392 21.3981 10.1121 21.3671 10.1704 21.3162C10.2286 21.2654 10.2693 21.1974 10.2865 21.122C10.3037 21.0466 10.2965 20.9677 10.2661 20.8966C9.2447 18.447 9.97688 15.5183 12.1734 14.0539C12.1734 16.2505 13.6378 16.2505 13.6378 18.447C14.1103 18.4598 14.5752 18.3259 14.9686 18.0636C15.3619 17.8014 15.6644 17.4238 15.8343 16.9827C17.2987 17.7148 17.2987 19.9114 15.6044 21.2985C15.5955 21.3049 15.538 21.3485 15.5297 21.3557C15.4729 21.4043 15.4323 21.4692 15.4134 21.5416C15.3945 21.614 15.3983 21.6904 15.4242 21.7606C15.4501 21.8308 15.4969 21.8914 15.5582 21.9342C15.6196 21.977 15.6926 21.9999 15.7675 22C15.7925 22.0002 15.8174 21.9976 15.8418 21.9921C17.8306 21.5796 19.4104 20.018 20.0679 17.8165C20.9054 15.0121 20.0839 11.9282 17.9235 9.76818Z" fill="url(#paint1_linear_26950_80827)"/>
<defs>
<linearGradient id="paint0_linear_26950_80827" x1="0.166016" y1="15.2124" x2="26.8327" y2="15.2124" gradientUnits="userSpaceOnUse">
<stop stop-color="#DA9E1C"/>
<stop offset="1" stop-color="#ECBD57"/>
</linearGradient>
<linearGradient id="paint1_linear_26950_80827" x1="6.83398" y1="14.7273" x2="20.3904" y2="14.7273" gradientUnits="userSpaceOnUse">
<stop stop-color="#DA9E1C"/>
<stop offset="1" stop-color="#ECBD57"/>
</linearGradient>
</defs>
</svg>