<svg xmlns="http://www.w3.org/2000/svg" width="27" height="28" viewBox="0 0 27 28" fill="none">
<circle cx="13.4993" cy="14.0003" r="13.0333" fill="#333333" stroke="url(#paint0_linear_26950_81066)" stroke-width="0.6"/>
<path fill-rule="evenodd" clip-rule="evenodd" d="M15.0713 14.2205C14.6546 14.6485 14.0894 14.8889 13.5 14.8889C12.9111 14.8889 12.3464 14.6489 11.9297 14.2216C11.513 13.7943 11.2786 13.2147 11.2778 12.61V8.28193C11.2778 7.98227 11.3353 7.68553 11.4469 7.40868C11.5586 7.13182 11.7223 6.88026 11.9287 6.66836C12.135 6.45647 12.38 6.28838 12.6496 6.1737C12.9192 6.05902 13.2082 6 13.5 6C13.7918 6 14.0808 6.05902 14.3504 6.1737C14.62 6.28838 14.865 6.45647 15.0713 6.66836C15.2777 6.88026 15.4414 7.13182 15.5531 7.40868C15.6647 7.68553 15.7222 7.98227 15.7222 8.28193V12.607C15.7222 13.2122 15.4881 13.7926 15.0713 14.2205ZM12.4524 7.20622C12.1746 7.49152 12.0185 7.87846 12.0185 8.28193V10.0649H14.9815V8.28193C14.9815 7.87846 14.8254 7.49152 14.5476 7.20622C14.2697 6.92092 13.8929 6.76064 13.5 6.76064C13.1071 6.76064 12.7303 6.92092 12.4524 7.20622ZM14.8119 16.1116C15.2252 15.9121 15.5944 15.6169 15.894 15.2462C16.0487 15.0434 16.2705 14.9162 16.5106 14.8928C16.7507 14.8694 16.9895 14.9516 17.1743 15.1213C17.3592 15.291 17.4751 15.5344 17.4964 15.7979C17.5178 16.0614 17.4429 16.3234 17.2882 16.5262C16.5511 17.476 15.5307 18.1078 14.4087 18.3092V21.0029C14.4087 21.2674 14.313 21.521 14.1426 21.708C13.9722 21.895 13.7411 22 13.5001 22C13.2591 22 13.028 21.895 12.8576 21.708C12.6872 21.521 12.5914 21.2674 12.5914 21.0029V18.3092C11.4695 18.1078 10.4491 17.476 9.71198 16.5262C9.63539 16.4259 9.57756 16.31 9.54179 16.1851C9.50603 16.0602 9.49302 15.9289 9.50353 15.7985C9.51403 15.6681 9.54784 15.5412 9.60301 15.4252C9.65819 15.3091 9.73366 15.2062 9.8251 15.1221C9.91655 15.0381 10.0222 14.9746 10.136 14.9354C10.2498 14.8961 10.3695 14.8819 10.4883 14.8934C10.6072 14.9049 10.7227 14.942 10.8285 15.0025C10.9343 15.0631 11.0281 15.1459 11.1047 15.2462C11.4044 15.6168 11.7735 15.912 12.1868 16.1115C12.6002 16.311 13.0479 16.4101 13.4994 16.4021C13.9508 16.4102 14.3986 16.3112 14.8119 16.1116Z" fill="#ECBD56"/>
<defs>
<linearGradient id="paint0_linear_26950_81066" x1="0.166016" y1="15.2124" x2="26.8327" y2="15.2124" gradientUnits="userSpaceOnUse">
<stop stop-color="#DA9E1C"/>
<stop offset="1" stop-color="#ECBD57"/>
</linearGradient>
</defs>
</svg>